<svg width="422" height="201" viewBox="0 0 422 201" xmlns="http://www.w3.org/2000/svg"><title>Welcome_pam</title><defs><filter x="-50%" y="-50%" width="200%" height="200%" filterUnits="objectBoundingBox" id="a"><feOffset in="SourceAlpha" result="shadowOffsetOuter1"/><feGaussianBlur stdDeviation="4" in="shadowOffsetOuter1" result="shadowBlurOuter1"/><feColorMatrix values="0 0 0 0 0 0 0 0 0 0 0 0 0 0 0 0 0 0 0.25 0" in="shadowBlurOuter1" result="shadowMatrixOuter1"/><feMerge><feMergeNode in="shadowMatrixOuter1"/><feMergeNode in="SourceGraphic"/></feMerge></filter></defs><g transform="translate(0 1)" fill="none" fill-rule="evenodd"><g filter="url(#a)" transform="translate(141 96)"><path d="M0 70.5C0 31.608 31.608 0 70.5 0 109.392 0 141 31.608 141 70.5c0 38.892-31.608 70.5-70.5 70.5C31.608 141 0 109.392 0 70.5z" fill="#FFF"/><g fill="#164B78"><path d="M44.65 32.782c0-2.82 2.35-5.052 5.287-5.052 2.938 0 5.288 2.232 5.288 5.052 0 2.82-2.35 5.053-5.287 5.053-2.82 0-5.288-2.232-5.288-5.053zM85.657 32.313c0-2.82 2.35-5.053 5.288-5.053s5.288 2.232 5.288 5.052c0 2.82-2.35 5.053-5.288 5.053-2.82 0-5.288-2.232-5.288-5.053z"/></g><g fill="#CCE9FF"><path d="M95.293 46.883c0-7.756 6.344-14.1 14.1-14.1 7.754 0 14.1 6.344 14.1 14.1 0 7.754-6.346 14.1-14.1 14.1-7.755 0-14.1-6.345-14.1-14.1zM17.625 46.883c0-7.756 6.345-14.1 14.1-14.1s14.1 6.344 14.1 14.1c0 7.754-6.345 14.1-14.1 14.1s-14.1-6.345-14.1-14.1z"/></g><g fill="#2E9FFF"><path d="M108.57 42.418c0-1.41 1.058-2.468 2.468-2.468s2.467 1.057 2.467 2.467c0 1.41-1.175 2.468-2.467 2.468-1.293 0-2.468-1.057-2.468-2.467zM101.99 34.075c0-1.41 1.175-2.467 2.468-2.467 1.41 0 2.467 1.175 2.467 2.467 0 1.41-1.058 2.467-2.467 2.467-1.293.118-2.468-1.057-2.468-2.467zM113.623 34.075c0-1.41 1.057-2.467 2.467-2.467 1.41 0 2.468 1.175 2.468 2.467 0 1.41-1.176 2.467-2.468 2.467-1.41.118-2.467-1.057-2.467-2.467z"/><g><path d="M25.968 42.418c0-1.41 1.175-2.468 2.467-2.468 1.41 0 2.468 1.057 2.468 2.467 0 1.41-1.058 2.468-2.468 2.468-1.292 0-2.467-1.057-2.467-2.467zM19.387 34.075c0-1.41 1.058-2.467 2.468-2.467s2.467 1.175 2.467 2.467c0 1.41-1.174 2.467-2.467 2.467-1.41.118-2.468-1.057-2.468-2.467zM30.902 34.075c0-1.41 1.175-2.467 2.468-2.467 1.41 0 2.468 1.175 2.468 2.467 0 1.41-1.058 2.467-2.468 2.467-1.292.118-2.467-1.057-2.467-2.467z"/></g></g><path d="M55.695 46.883c2.115 6.11 7.99 10.457 14.805 10.457 6.815 0 12.573-4.348 14.805-10.458.352-1.057-.94-1.88-1.88-1.292-3.29 1.527-7.755 2.115-12.807 2.115-5.288 0-10.105-.705-13.395-2.468-.94-.47-1.88.588-1.528 1.645z" fill="#2E9FFF"/></g><ellipse stroke="#E5E5E5" stroke-width="2" cx="212" cy="168" rx="88" ry="88"/><circle stroke="#E5E5E5" stroke-width="2" cx="212" cy="168" r="123"/><path d="M45 168C45 75.189 119.965 0 212.5 0S380 75.189 380 168s-74.965 168-167.5 168S45 260.811 45 168z" stroke="#E5E5E5" stroke-width="2"/><path fill="#FFF" d="M0 199h422v141H0z"/><path fill="#E5E5E5" d="M0 197h422v2H0z"/><path d="M141 33h72v34h-72z"/><path d="M160.926 76.84c-16.338-8.77-21.51-29.582-11.637-46.068 9.522-15.901 29.622-21.397 44.902-12.861 15.163 8.418 20.688 28.061 12.107 44.08-2.35 4.443-5.524 8.067-9.168 11.107l-1.88 15.084-11.403-8.419c-7.522 1.754-15.75 1.052-22.92-2.923z" fill="#2E87E7"/><text fill="#FFF" font-family="Helvetica" font-size="21.046" transform="translate(144 13)"><tspan x="19.85" y="39.344">Yo</tspan></text><path d="M289 84h124v48H289z"/><path d="M350.353 151C376.706 151 398 128.843 398 101.5S376.706 52 350.353 52c-26.353 0-47.647 22.157-47.647 49.5 0 7.307 1.53 14.26 4.235 20.507l-7.882 20.154 20.47-2.947c8.353 7.307 19.06 11.786 30.824 11.786z" fill="#2E87E7"/><text fill="#FFF" font-family="Helvetica" font-size="28.235" transform="translate(299 52)"><tspan x="39.513" y="61.132">Hi</tspan></text><path d="M0 115h124v48H0z"/><g><path d="M64.21 169C44.173 169 28 152.28 28 132.029 28 112.013 43.703 96 63.156 96s35.625 16.013 36.211 36.029c.117 5.416-.82 10.597-2.812 15.189l6.328 15.07-15.586-2.119C81.32 165.703 73.234 169 64.21 169z" fill="#2E87E7"/><text fill="#FFF" font-family="Helvetica" font-size="24.609" transform="translate(28 96)"><tspan x="24.537" y="45.456">:P</tspan></text></g></g></svg>